<svg width="317" height="58" viewBox="0 0 317 58" fill="none" xmlns="http://www.w3.org/2000/svg">
<path d="M9.271 3.67969L26.7026 47.1855L44.1343 3.67969H53.2529V57H46.2217V36.2358L46.8809 13.8237L29.376 57H23.9927L6.52441 13.9336L7.22021 36.2358V57H0.188965V3.67969H9.271Z" fill="#E60000"/>
<path d="M62.811 36.8218C62.811 32.9399 63.5679 29.4487 65.0815 26.3481C66.6196 23.2476 68.7437 20.855 71.4536 19.1704C74.188 17.4858 77.3008 16.6436 80.792 16.6436C86.1875 16.6436 90.5454 18.5112 93.8657 22.2466C97.2104 25.9819 98.8828 30.9502 98.8828 37.1514V37.6274C98.8828 41.4849 98.1382 44.9517 96.6489 48.0278C95.1841 51.0796 93.0723 53.46 90.3135 55.1689C87.5791 56.8779 84.4297 57.7324 80.8652 57.7324C75.4941 57.7324 71.1362 55.8647 67.7915 52.1294C64.4712 48.394 62.811 43.4502 62.811 37.2979V36.8218ZM69.6226 37.6274C69.6226 42.022 70.6357 45.5498 72.6621 48.2109C74.7129 50.8721 77.4473 52.2026 80.8652 52.2026C84.3076 52.2026 87.042 50.8599 89.0684 48.1743C91.0947 45.4644 92.1079 41.6802 92.1079 36.8218C92.1079 32.4761 91.0703 28.9604 88.9951 26.2749C86.9443 23.5649 84.21 22.21 80.792 22.21C77.4473 22.21 74.7495 23.5405 72.6987 26.2017C70.6479 28.8628 69.6226 32.6714 69.6226 37.6274Z" fill="#F9A20C"/>
<path d="M123.272 52.2026C125.689 52.2026 127.801 51.4702 129.608 50.0054C131.415 48.5405 132.416 46.7095 132.611 44.5122H139.02C138.897 46.7827 138.116 48.9434 136.676 50.9941C135.235 53.0449 133.307 54.6807 130.89 55.9014C128.497 57.1221 125.958 57.7324 123.272 57.7324C117.877 57.7324 113.58 55.938 110.382 52.3491C107.208 48.7358 105.621 43.8042 105.621 37.5542V36.4189C105.621 32.5615 106.329 29.1313 107.745 26.1284C109.161 23.1255 111.188 20.7939 113.824 19.1338C116.485 17.4736 119.623 16.6436 123.236 16.6436C127.679 16.6436 131.366 17.9741 134.295 20.6353C137.25 23.2964 138.824 26.751 139.02 30.999H132.611C132.416 28.4355 131.439 26.3359 129.681 24.7002C127.948 23.04 125.799 22.21 123.236 22.21C119.793 22.21 117.12 23.4551 115.216 25.9453C113.336 28.4111 112.396 31.9878 112.396 36.6753V37.957C112.396 42.5225 113.336 46.0381 115.216 48.5039C117.096 50.9697 119.781 52.2026 123.272 52.2026Z" fill="#358BBD"/>
<path d="M157.696 38.6528L153.448 43.084V57H146.673V0.75H153.448V34.771L157.074 30.4131L169.415 17.376H177.655L162.237 33.9287L179.449 57H171.502L157.696 38.6528Z" fill="#FC9F8A"/>
<path d="M193.841 7.78125V17.376H201.239V22.6128H193.841V47.1855C193.841 48.7725 194.171 49.9688 194.83 50.7744C195.489 51.5557 196.612 51.9463 198.199 51.9463C198.98 51.9463 200.055 51.7998 201.422 51.5068V57C199.64 57.4883 197.906 57.7324 196.222 57.7324C193.194 57.7324 190.912 56.8169 189.374 54.9858C187.835 53.1548 187.066 50.5547 187.066 47.1855V22.6128H179.852V17.376H187.066V7.78125H193.841Z" fill="#94C47A"/>
<path d="M233.648 57C233.258 56.2188 232.94 54.8271 232.696 52.8252C229.547 56.0967 225.787 57.7324 221.417 57.7324C217.511 57.7324 214.3 56.6338 211.786 54.4365C209.295 52.2148 208.05 49.4072 208.05 46.0137C208.05 41.8877 209.613 38.6895 212.738 36.4189C215.887 34.124 220.306 32.9766 225.995 32.9766H232.586V29.8638C232.586 27.4956 231.878 25.6157 230.462 24.2241C229.046 22.8081 226.959 22.1001 224.2 22.1001C221.783 22.1001 219.757 22.7104 218.121 23.9312C216.485 25.1519 215.667 26.6289 215.667 28.3623H208.856C208.856 26.3848 209.552 24.4805 210.943 22.6494C212.359 20.7939 214.264 19.3291 216.656 18.2549C219.073 17.1807 221.722 16.6436 224.603 16.6436C229.168 16.6436 232.745 17.791 235.333 20.0859C237.921 22.3564 239.264 25.4937 239.361 29.4976V47.7349C239.361 51.3726 239.825 54.2656 240.753 56.4141V57H233.648ZM222.406 51.8364C224.53 51.8364 226.544 51.2871 228.448 50.1885C230.353 49.0898 231.732 47.6616 232.586 45.9038V37.7739H227.276C218.976 37.7739 214.825 40.2031 214.825 45.0615C214.825 47.1855 215.533 48.8457 216.949 50.042C218.365 51.2383 220.184 51.8364 222.406 51.8364Z" fill="#EEAB23"/>
<path d="M257.342 57H250.567V17.376H257.342V57ZM250.018 6.86572C250.018 5.76709 250.348 4.83936 251.007 4.08252C251.69 3.32568 252.691 2.94727 254.01 2.94727C255.328 2.94727 256.329 3.32568 257.013 4.08252C257.696 4.83936 258.038 5.76709 258.038 6.86572C258.038 7.96436 257.696 8.87988 257.013 9.6123C256.329 10.3447 255.328 10.7109 254.01 10.7109C252.691 10.7109 251.69 10.3447 251.007 9.6123C250.348 8.87988 250.018 7.96436 250.018 6.86572Z" fill="#FD2705"/>
<path d="M275.58 57H268.805V0.75H275.58V57Z" fill="#519DC9"/>
<path d="M309.527 46.4897C309.527 44.6587 308.832 43.2427 307.44 42.2417C306.073 41.2163 303.668 40.3374 300.226 39.605C296.808 38.8726 294.085 37.9937 292.059 36.9683C290.057 35.9429 288.568 34.7222 287.591 33.3062C286.639 31.8901 286.163 30.2056 286.163 28.2524C286.163 25.0054 287.53 22.2588 290.265 20.0127C293.023 17.7666 296.539 16.6436 300.812 16.6436C305.304 16.6436 308.941 17.8032 311.725 20.1226C314.532 22.4419 315.936 25.4082 315.936 29.0215H309.125C309.125 27.166 308.331 25.5669 306.744 24.2241C305.182 22.8813 303.204 22.21 300.812 22.21C298.346 22.21 296.417 22.7471 295.025 23.8213C293.634 24.8955 292.938 26.2993 292.938 28.0327C292.938 29.6685 293.585 30.9014 294.879 31.7314C296.173 32.5615 298.504 33.355 301.874 34.1118C305.267 34.8687 308.014 35.772 310.113 36.8218C312.213 37.8716 313.763 39.1411 314.764 40.6304C315.79 42.0952 316.302 43.8896 316.302 46.0137C316.302 49.5537 314.886 52.3979 312.054 54.5464C309.222 56.6704 305.548 57.7324 301.031 57.7324C297.857 57.7324 295.05 57.1709 292.608 56.0479C290.167 54.9248 288.25 53.3623 286.859 51.3604C285.492 49.334 284.808 47.1489 284.808 44.8052H291.583C291.705 47.0757 292.608 48.8823 294.293 50.2251C296.002 51.5435 298.248 52.2026 301.031 52.2026C303.595 52.2026 305.646 51.6899 307.184 50.6646C308.746 49.6147 309.527 48.2231 309.527 46.4897Z" fill="#2EAC5B"/>
</svg>
